{"accessors":[{"bufferView":0,"byteOffset":0,"componentType":5126,"count":64,"max":[0.025,1.3200611393899999e-17,0.0233],"min":[0.0,-0.023270094617085534,-0.0233],"type":"VEC3"},{"bufferView":0,"byteOffset":768,"componentType":5126,"count":4,"max":[0.025,0.0,-0.0223],"min":[0.0,-5.70666560881e-18,-0.0233],"type":"VEC3"},{"bufferView":0,"byteOffset":816,"componentType":5126,"count":62,"max":[0.025,2.73087216902e-18,0.0223],"min":[0.0,-0.0223,-0.0223],"type":"VEC3"},{"bufferView":0,"byteOffset":1560,"componentType":5126,"count":4,"max":[0.025,1.3200611393899999e-17,0.0233],"min":[0.0,2.73087216902e-18,0.0223],"type":"VEC3"},{"bufferView":0,"byteOffset":1608,"componentType":5126,"count":63,"max":[0.0,1.3200611393899999e-17,0.0233],"min":[0.0,-0.023270094617085534,-0.0233],"type":"VEC3"},{"bufferView":0,"byteOffset":2364,"componentType":5126,"count":63,"max":[0.025,1.3200611393899999e-17,0.0233],"min":[0.025,-0.023270094617085534,-0.0233],"type":"VEC3"},{"bufferView":1,"byteOffset":0,"componentType":5126,"count":64,"type":"VEC3"},{"bufferView":1,"byteOffset":768,"componentType":5126,"count":4,"type":"VEC3"},{"bufferView":1,"byteOffset":816,"componentType":5126,"count":62,"type":"VEC3"},{"bufferView":1,"byteOffset":1560,"componentType":5126,"count":4,"type":"VEC3"},{"bufferView":1,"byteOffset":1608,"componentType":5126,"count":63,"type":"VEC3"},{"bufferView":1,"byteOffset":2364,"componentType":5126,"count":63,"type":"VEC3"},{"bufferView":2,"byteOffset":0,"componentType":5123,"count":186,"type":"SCALAR"},{"bufferView":2,"byteOffset":372,"componentType":5123,"count":6,"type":"SCALAR"},{"bufferView":2,"byteOffset":384,"componentType":5123,"count":180,"type":"SCALAR"},{"bufferView":2,"byteOffset":744,"componentType":5123,"count":6,"type":"SCALAR"},{"bufferView":2,"byteOffset":756,"componentType":5123,"count":183,"type":"SCALAR"},{"bufferView":2,"byteOffset":1124,"componentType":5123,"count":183,"type":"SCALAR"}],"asset":{"generator":"Open CASCADE Technology 7.8 [dev.opencascade.org]","version":"2.0"},"bufferViews":[{"buffer":0,"byteLength":3120,"byteOffset":0,"byteStride":12,"target":34962},{"buffer":0,"byteLength":3120,"byteOffset":3120,"byteStride":12,"target":34962},{"buffer":0,"byteLength":1492,"byteOffset":6240,"target":34963}],"buffers":[{"byteLength":7732,"uri":"etiquete-wrap.bin"}],"materials":[{"name":"mat_0","pbrMetallicRoughness":{"baseColorFactor":[0.6444796919822693,0.6444796919822693,1.0,1.0]},"doubleSided":true}],"meshes":[{"name":"etiquete-wrap","primitives":[{"attributes":{"NORMAL":6,"POSITION":0},"indices":12,"material":0,"mode":4},{"attributes":{"NORMAL":7,"POSITION":1},"indices":13,"material":0,"mode":4},{"attributes":{"NORMAL":8,"POSITION":2},"indices":14,"material":0,"mode":4},{"attributes":{"NORMAL":9,"POSITION":3},"indices":15,"material":0,"mode":4},{"attributes":{"NORMAL":10,"POSITION":4},"indices":16,"material":0,"mode":4},{"attributes":{"NORMAL":11,"POSITION":5},"indices":17,"material":0,"mode":4}]}],"nodes":[{"mesh":0,"name":"etiquete-wrap"}],"scene":0,"scenes":[{"nodes":[0]}]}